<?xml version="1.0" encoding="utf-8"?>
<!-- Generator: Adobe Illustrator 24.1.0, SVG Export Plug-In . SVG Version: 6.00 Build 0)  -->
<svg version="1.1" xmlns="http://www.w3.org/2000/svg" xmlns:xlink="http://www.w3.org/1999/xlink" x="0px" y="0px"
	 viewBox="0 0 150 150" style="enable-background:new 0 0 150 150;" xml:space="preserve">
<style type="text/css">
	.st0{display:none;}
	.st1{display:inline;fill:#FFFFFF;}
	.st2{fill:#FFFFFF;}
</style>
<g id="Warstwa_1" class="st0">
	<g>
		<path class="st1" d="M89.2,51.85c0.46,0.52,1.25,0.57,1.78,0.12c0.52-0.46,0.57-1.25,0.11-1.78l-9.36-10.7
			c-0.46-0.53-1.26-0.57-1.78-0.12c-0.52,0.46-0.57,1.25-0.12,1.78L89.2,51.85z"/>
		<path class="st1" d="M105.27,45.67c0.69-0.01,1.25-0.57,1.25-1.27l-0.1-14.22c0-0.7-0.57-1.26-1.27-1.25
			c-0.69,0.01-1.25,0.57-1.25,1.27l0.1,14.22C104,45.11,104.57,45.67,105.27,45.67z"/>
		<path class="st1" d="M137.64,83.06l-12.59-6.62c-0.62-0.32-1.38-0.09-1.7,0.53c-0.32,0.61-0.08,1.37,0.53,1.7l12.58,6.63
			c0.62,0.32,1.38,0.09,1.7-0.54C138.49,84.15,138.26,83.38,137.64,83.06z"/>
		<path class="st1" d="M140.59,59.16l-14.12,1.65c-0.69,0.08-1.18,0.71-1.1,1.4c0.08,0.69,0.7,1.18,1.39,1.1l14.13-1.65
			c0.69-0.08,1.19-0.7,1.1-1.4C141.91,59.58,141.29,59.08,140.59,59.16z"/>
		<path class="st1" d="M112.77,85.34c-0.23-0.65-0.95-1-1.61-0.77c-0.66,0.23-1,0.95-0.77,1.6l4.73,13.42c0.23,0.66,0.95,1,1.6,0.77
			c0.66-0.23,1-0.95,0.77-1.61L112.77,85.34z"/>
		<path class="st1" d="M119.81,50.54l8.76-11.21c0.43-0.55,0.33-1.34-0.22-1.77c-0.55-0.43-1.34-0.33-1.77,0.22L117.83,49
			c-0.43,0.55-0.33,1.34,0.22,1.76C118.6,51.19,119.39,51.09,119.81,50.54z"/>
		<path class="st1" d="M105.2,47.42c-10.22,0-18.54,8.32-18.54,18.54c0,1.08,0.11,2.14,0.29,3.17c1.49,0.08,2.92,0.35,4.28,0.8
			c-0.36-1.26-0.56-2.59-0.56-3.97c0-8.02,6.52-14.54,14.54-14.54c8.02,0,14.54,6.52,14.54,14.54c0,8.02-6.52,14.54-14.54,14.54
			c-1.29,0-2.54-0.19-3.73-0.5c0.48,1.35,0.78,2.78,0.88,4.26c0.93,0.14,1.88,0.24,2.85,0.24c10.22,0,18.54-8.32,18.54-18.54
			C123.75,55.74,115.43,47.42,105.2,47.42z"/>
		<path class="st1" d="M103.36,86.77c0.04-0.44,0.05-0.89,0.05-1.34c0-0.39-0.03-0.77-0.06-1.15c-0.1-1.49-0.41-2.91-0.88-4.26
			c-1.67-4.74-5.46-8.48-10.24-10.07c-1.35-0.45-2.79-0.72-4.28-0.8c-0.29-0.01-0.57-0.04-0.86-0.04c-3.02,0-5.92,0.82-8.44,2.35
			c-0.47-2.61-1.51-5.03-2.97-7.14l8.8,0.72c0.7,0.06,1.3-0.46,1.36-1.16c0.06-0.68-0.46-1.3-1.15-1.35l-11.26-0.92
			c-3.75-3.74-9.05-5.97-14.79-5.65c-9.42,0.47-16.9,7.33-18.19,16.16c-1.67-0.58-3.39-0.87-5.15-0.87c-9,0-16.32,7.32-16.32,16.32
			c0,0.17,0,0.33,0.02,0.5c-4.56,1.25-11.02,3.91-11.01,13.19c0.01,7.39,6.56,13.4,14.61,13.4l0.77-0.02
			c5.01-0.25,25.75,0.02,25.75,0.01l0.13,0c0,0,9.14,0.06,23.99,0.09c0,0,11.18,0.19,19.28,0.19c0,0,0.01,0,0.01,0
			c3.04,0,5.66-0.03,7.1-0.1c3.85-0.19,7.42-2.05,10.05-5.23c2.48-2.99,3.8-6.82,3.62-10.5C113.02,93.36,109.03,88.52,103.36,86.77z
			 M106.61,107.05c-1.91,2.31-4.46,3.65-7.17,3.79c-1.41,0.07-3.95,0.09-6.9,0.09c0,0-0.01,0-0.01,0c-8.07,0-19.21-0.19-19.25-0.19
			c-9.26-0.02-23.31-0.05-24.04-0.08l-0.07-0.01c0,0-9.59-0.12-17.34-0.12c-3.72,0-7.02,0.03-8.66,0.11l-0.57,0.01
			c-5.84,0-10.6-4.22-10.61-9.4c0-6.17,3.37-8.18,9.62-9.72l2.41-0.6c0,0-0.72-0.91-0.87-1.42C23,89,23.08,88.64,23.08,88.64
			c-0.05-0.35-0.1-0.71-0.1-1.07c0-6.8,5.53-12.32,12.32-12.32c2.05,0,4.06,0.55,5.98,1.62l3.04,1.7l-0.06-3.48
			c-0.14-8.07,6.27-14.72,14.58-15.14l0.81-0.02c3.7,0,7.09,1.28,9.74,3.4c0.13,0.19,0.3,0.34,0.52,0.44
			c2.91,2.55,4.82,6.18,5.02,10.27c0.02,0.28,0,0.56-0.04,1.29l-0.19,5.16l3.62-3.68c2.34-2.38,5.46-3.69,8.78-3.69
			c0.72,0,1.41,0.09,2.1,0.21c5.04,0.87,9.04,4.79,9.99,9.81c0.14,0.75,0.23,1.51,0.23,2.3c0,0.84-0.09,1.66-0.25,2.46l-0.41,2.01
			l2.02,0.36c4.8,0.84,8.31,4.57,8.53,9.04C109.44,101.99,108.46,104.81,106.61,107.05z"/>
	</g>
</g>
<g id="Warstwa_2">
	<g>
		<path class="st2" d="M76.36,107.31c-16.94,0-30.71-13.78-30.71-30.72c0-16.94,13.78-30.72,30.71-30.72
			c16.94,0,30.72,13.78,30.72,30.72C107.07,93.54,93.3,107.31,76.36,107.31z M76.36,51.24C62.38,51.24,51,62.62,51,76.6
			c0,13.98,11.37,25.36,25.35,25.36c13.99,0,25.36-11.37,25.36-25.36C101.71,62.62,90.34,51.24,76.36,51.24z"/>
		<g>
			<path class="st2" d="M52.44,49.83c0.77,0.89,0.69,2.24-0.2,3.01l0,0c-0.9,0.78-2.24,0.69-3.01-0.2L33.35,34.5
				c-0.77-0.89-0.68-2.24,0.2-3.01l0,0c0.89-0.78,2.24-0.69,3.01,0.2L52.44,49.83z"/>
		</g>
		<g>
			<path class="st2" d="M78.58,40.02c0.01,1.18-0.94,2.14-2.12,2.15l0,0c-1.18,0.01-2.14-0.93-2.15-2.12l-0.17-24.1
				c-0.01-1.19,0.94-2.14,2.11-2.15l0,0c1.18,0,2.14,0.93,2.15,2.12L78.58,40.02z"/>
		</g>
		<g>
			<path class="st2" d="M39.89,70.74c1.18,0.1,2.04,1.13,1.95,2.3l0,0c-0.1,1.18-1.12,2.05-2.3,1.96l-24.03-1.96
				c-1.18-0.1-2.06-1.13-1.95-2.3l0,0c0.09-1.18,1.12-2.05,2.3-1.96L39.89,70.74z"/>
		</g>
		<g>
			<path class="st2" d="M43.76,93.58c1-0.63,2.32-0.33,2.94,0.66l0,0c0.63,0.99,0.34,2.31-0.66,2.95l-20.38,12.88
				c-1,0.63-2.32,0.34-2.94-0.66l0,0c-0.63-1-0.34-2.31,0.66-2.94L43.76,93.58z"/>
		</g>
		<g>
			<path class="st2" d="M61.97,109.46c0.42-1.11,1.65-1.66,2.75-1.25l0,0c1.1,0.42,1.66,1.64,1.25,2.75l-8.5,22.56
				c-0.42,1.1-1.65,1.66-2.74,1.24l0,0c-1.12-0.42-1.67-1.64-1.26-2.75L61.97,109.46z"/>
		</g>
		<g>
			<path class="st2" d="M108.01,98.09c-1.05-0.55-1.45-1.84-0.9-2.88l0,0c0.54-1.04,1.84-1.45,2.88-0.89l21.34,11.22
				c1.05,0.56,1.45,1.85,0.89,2.88l0,0c-0.55,1.05-1.83,1.45-2.89,0.9L108.01,98.09z"/>
		</g>
		<g>
			<path class="st2" d="M112.9,72.08c-1.17,0.14-2.23-0.7-2.37-1.86l0,0c-0.14-1.17,0.69-2.24,1.87-2.37l23.94-2.8
				c1.18-0.13,2.24,0.7,2.37,1.87l0,0c0.14,1.18-0.7,2.23-1.87,2.38L112.9,72.08z"/>
		</g>
		<g>
			<path class="st2" d="M97.18,132.15c0.4,1.11-0.18,2.33-1.3,2.73l0,0c-1.12,0.38-2.33-0.19-2.72-1.3l-8.02-22.74
				c-0.39-1.11,0.19-2.33,1.3-2.72l0,0c1.11-0.39,2.33,0.18,2.72,1.3L97.18,132.15z"/>
		</g>
		<g>
			<path class="st2" d="M101.13,50.43c-0.73,0.93-2.06,1.1-3,0.38l0,0c-0.93-0.73-1.09-2.06-0.37-2.99l14.85-19.01
				c0.73-0.93,2.07-1.1,2.99-0.37l0,0c0.93,0.72,1.09,2.07,0.36,3L101.13,50.43z"/>
		</g>
	</g>
</g>
</svg>
