<svg id="Warstwa_1" data-name="Warstwa 1" xmlns="http://www.w3.org/2000/svg" viewBox="0 0 150 150"><defs><style>.cls-1{fill:#fff;}</style></defs><path class="cls-1" d="M89.2,51.85a1.26,1.26,0,1,0,1.89-1.66l-9.36-10.7a1.26,1.26,0,1,0-1.9,1.66Z"/><path class="cls-1" d="M105.27,45.67a1.25,1.25,0,0,0,1.24-1.27l-.1-14.22a1.26,1.26,0,1,0-2.51,0l.1,14.22A1.26,1.26,0,0,0,105.27,45.67Z"/><path class="cls-1" d="M137.64,83.06l-12.59-6.62a1.25,1.25,0,1,0-1.17,2.22l12.58,6.63a1.26,1.26,0,0,0,1.18-2.23Z"/><path class="cls-1" d="M140.59,59.16l-14.12,1.65a1.27,1.27,0,0,0-1.1,1.4,1.24,1.24,0,0,0,1.39,1.1l14.13-1.65a1.26,1.26,0,0,0-.3-2.5Z"/><path class="cls-1" d="M112.77,85.34a1.26,1.26,0,0,0-1.61-.76,1.25,1.25,0,0,0-.77,1.6l4.73,13.42a1.26,1.26,0,1,0,2.37-.84Z"/><path class="cls-1" d="M119.81,50.54l8.76-11.21a1.25,1.25,0,1,0-2-1.54L117.83,49a1.25,1.25,0,1,0,2,1.54Z"/><path class="cls-1" d="M105.2,47.42A18.45,18.45,0,0,0,87,69.13a16.3,16.3,0,0,1,4.28.8,14.53,14.53,0,1,1,14,10.57,14.79,14.79,0,0,1-3.73-.5,15.82,15.82,0,0,1,.88,4.26,17.87,17.87,0,0,0,2.85.24,18.54,18.54,0,1,0,0-37.08Z"/><path class="cls-1" d="M103.36,86.77c0-.44,0-.89,0-1.34s0-.77-.06-1.15a15.9,15.9,0,0,0-.88-4.26A16.25,16.25,0,0,0,88,69.15c-.29,0-.57,0-.86,0a16.21,16.21,0,0,0-8.44,2.35,18.23,18.23,0,0,0-3-7.14l8.8.71a1.25,1.25,0,1,0,.21-2.5l-11.27-.92A19.41,19.41,0,0,0,58.63,56,19.13,19.13,0,0,0,40.44,72.11a15.59,15.59,0,0,0-5.14-.87A16.34,16.34,0,0,0,19,87.56c0,.17,0,.34,0,.51C14.44,89.31,8,92,8,101.26c0,7.39,6.57,13.4,14.61,13.4l.78,0c5-.25,25.75,0,25.75,0h.12s9.14.06,24,.09c0,0,11.18.19,19.28.19h0c3,0,5.65,0,7.1-.1a13.94,13.94,0,0,0,10-5.23,15.52,15.52,0,0,0,3.62-10.5A13.76,13.76,0,0,0,103.36,86.77Zm3.25,20.28a10,10,0,0,1-7.17,3.79c-1.41.07-4,.09-6.9.09h0c-8.07,0-19.21-.19-19.24-.19-9.27,0-23.31,0-24.05-.08h-.06s-9.59-.12-17.34-.12c-3.72,0-7,0-8.66.11l-.58,0c-5.84,0-10.6-4.22-10.6-9.41,0-6.17,3.37-8.18,9.61-9.72l2.42-.6a6.35,6.35,0,0,1-.87-1.42,1.9,1.9,0,0,1-.07-.87,7.74,7.74,0,0,1-.1-1.08A12.33,12.33,0,0,1,35.3,75.24a12.19,12.19,0,0,1,6,1.62l3,1.71-.06-3.48A15,15,0,0,1,58.83,60l.82,0a15.54,15.54,0,0,1,9.73,3.4,1.21,1.21,0,0,0,.52.43,14.57,14.57,0,0,1,5,10.28c0,.28,0,.56,0,1.28l-.2,5.16,3.62-3.68a12.33,12.33,0,0,1,20.87,6.33,11.92,11.92,0,0,1,0,4.76l-.41,2,2,.36a9.93,9.93,0,0,1,8.53,9A11.5,11.5,0,0,1,106.61,107.05Z"/></svg>