<svg id="Warstwa_3" data-name="Warstwa 3" xmlns="http://www.w3.org/2000/svg" viewBox="0 0 150 150"><defs><style>.cls-1{fill:#fff;}</style></defs><path class="cls-1" d="M133.44,65.83c0-.28,0-.56,0-.85A14.52,14.52,0,0,0,119,50.48a14.35,14.35,0,0,0-7,1.79A17,17,0,0,0,95.3,39.12l-.89,0A17,17,0,0,0,79.15,50.42,21.11,21.11,0,0,0,62.9,44,20.62,20.62,0,0,0,43.26,61.48a17,17,0,0,0-5.58-.95A17.65,17.65,0,0,0,20.05,78.16a5.21,5.21,0,0,0,0,.55C15.16,80.05,8.17,82.92,8.19,93c0,8,7.08,14.47,15.77,14.47l.84,0c5.4-.27,27.81,0,27.81,0h.15s9.86.07,25.91.1c0,0,12.06.21,20.82.21,3.3,0,6.13,0,7.7-.11,8.22-.41,15.06-8.22,14.76-16.77h1.55c2.7,0,5,0,6.3-.09a12.43,12.43,0,0,0,9-4.66A13.73,13.73,0,0,0,142,76.75,12.24,12.24,0,0,0,133.44,65.83Zm-15.8,25c.28,5.62-4.22,12.15-10.66,12.47-5.68.28-28.22-.11-28.27-.1-10,0-25.16-.06-26-.09h-.07S42.31,103,33.94,103c-4,0-7.59,0-9.36.12H24c-6.32,0-11.46-4.55-11.46-10.16,0-6.68,3.64-8.85,10.39-10.52l1.61-.66.06-1.64-.09-.81a8.93,8.93,0,0,1-.11-1.16A13.33,13.33,0,0,1,37.68,64.84a13.16,13.16,0,0,1,6.47,1.75l3.27,1.83-.06-3.74A16.26,16.26,0,0,1,63.11,48.32l.88,0a16.74,16.74,0,0,1,10.95,4,15.85,15.85,0,0,1,4,5.22,15.5,15.5,0,0,1,1.52,6,13,13,0,0,1,0,1.39l-.21,5.55,3.9-4A13.3,13.3,0,0,1,107,75.85a12.9,12.9,0,0,1-.27,2.66l-.43,2.17,2.18.38a11.26,11.26,0,0,1,7.91,5.43,9.68,9.68,0,0,1,1.3,4.32Zm12-4.39"/></svg>