<svg id="Warstwa_3" data-name="Warstwa 3" xmlns="http://www.w3.org/2000/svg" viewBox="0 0 150 150"><defs><style>.cls-1{fill:#fff;}</style></defs><path class="cls-1" d="M128.22,62.3c.05-.61.08-1.21.08-1.81a20.7,20.7,0,0,0-20.68-20.67,20.41,20.41,0,0,0-10.86,3.09,24.64,24.64,0,0,0-48.5.79,19.91,19.91,0,0,0-6.69-1.16A20.69,20.69,0,0,0,20.91,63.21c0,.24,0,.49,0,.75-5.77,1.57-14,4.91-14,16.71,0,8.77,7.3,16.3,17.23,16.77l3-4.69-1.05,0-.74,0c-7.53,0-13.67-5.45-13.67-12.14,0-8,4.34-10.56,12.38-12.56l1.81-.68.05-1.83-.09-1a10.86,10.86,0,0,1-.14-1.41A15.88,15.88,0,0,1,41.57,47.35a15.69,15.69,0,0,1,7.71,2.08l3.65,2-.08-4.19A19.35,19.35,0,0,1,71.59,27.84l1,0A19.38,19.38,0,0,1,92.26,46a16.21,16.21,0,0,1-.05,1.66L92,53.79l4.34-4.41a15.85,15.85,0,0,1,27.16,11.11,16.44,16.44,0,0,1-.32,3.16l-.49,2.42,2.42.43c6.2,1.08,10.72,5.88,11,11.66s-3.72,12.41-9.78,14.32l1.6,4.48a19.44,19.44,0,0,0,13-19A17.39,17.39,0,0,0,128.22,62.3Z"/><path class="cls-1" d="M49.89,116.15h0c-8-10.68-7.46-29.1-7.83-23.2-1,15.39-7.07,23.2-7.07,23.2h0a6.73,6.73,0,0,0-.79,3.16c0,4.07,3.68,7.38,8.23,7.38s8.24-3.31,8.24-7.38A6.73,6.73,0,0,0,49.89,116.15Z"/><path class="cls-1" d="M75.23,101.65h0c-7-9.33-6.51-25.41-6.84-20.26-.88,13.44-6.16,20.26-6.16,20.26h0a5.91,5.91,0,0,0-.7,2.75c0,3.56,3.22,6.45,7.19,6.45s7.2-2.89,7.2-6.45A5.91,5.91,0,0,0,75.23,101.65Z"/><path class="cls-1" d="M94.86,120.37h0c-6.38-8.54-5.94-23.26-6.26-18.54C87.81,114.12,83,120.37,83,120.37h0a5.44,5.44,0,0,0-.63,2.52c0,3.26,2.94,5.9,6.59,5.9s6.58-2.64,6.58-5.9A5.45,5.45,0,0,0,94.86,120.37Z"/><path class="cls-1" d="M102.78,95.28h0c-4-5.37-3.75-14.63-3.94-11.67-.51,7.75-3.55,11.67-3.55,11.67h0a3.35,3.35,0,0,0-.4,1.59,4.17,4.17,0,0,0,8.29,0A3.35,3.35,0,0,0,102.78,95.28Z"/></svg>