<svg id="Warstwa_4" data-name="Warstwa 4" xmlns="http://www.w3.org/2000/svg" viewBox="0 0 150 150"><defs><style>.cls-1{fill:#fff;}</style></defs><path class="cls-1" d="M82.56,123.35c-5.34-7.14-5-19.46-5.24-15.52-.67,10.3-4.72,15.52-4.72,15.52a4.52,4.52,0,0,0-.53,2.11,5.24,5.24,0,0,0,5.5,4.93c3.05,0,5.52-2.21,5.52-4.93a4.53,4.53,0,0,0-.54-2.11Z"/><path class="cls-1" d="M110.54,32.14a16,16,0,0,0-16,16,15.84,15.84,0,0,0,2.3,8.21,17.34,17.34,0,0,0-12.71,2.2,20.61,20.61,0,0,0-40.57.66,16.83,16.83,0,0,0-5.6-1,17.32,17.32,0,0,0-17.3,17.29c0,.21,0,.41,0,.63C15.87,77.47,8.94,80.26,9,90.14c0,7.34,6.11,13.64,14.42,14l2.54-3.93-.88,0h-.62c-6.3,0-11.43-4.56-11.44-10.15,0-6.68,3.64-8.84,10.36-10.51l1.52-.58,0-1.52-.08-.82a9.23,9.23,0,0,1-.11-1.19A13.28,13.28,0,0,1,38,62.25,13,13,0,0,1,44.41,64l3.06,1.71-.06-3.5A16.17,16.17,0,0,1,63.08,45.94l.87,0A16.21,16.21,0,0,1,80.38,61.09c0,.3,0,.6,0,1.38l-.18,5.17L83.78,64a13.27,13.27,0,0,1,22.73,9.3,13.61,13.61,0,0,1-.27,2.65l-.41,2,2,.36c5.18.9,9,4.92,9.2,9.76s-3.1,10.38-8.18,12l1.34,3.74a16.26,16.26,0,0,0,10.86-15.92,14.55,14.55,0,0,0-10.62-13.08c.05-.5.07-1,.07-1.51a17.13,17.13,0,0,0-2.79-9.39,16,16,0,1,0,2.8-31.72Zm0,29.19a13.2,13.2,0,1,1,13.2-13.2A13.21,13.21,0,0,1,110.54,61.33Z"/><path class="cls-1" d="M96.42,35.66a1.11,1.11,0,1,0,1.67-1.46l-8.27-9.45a1.11,1.11,0,0,0-1.56-.1,1.12,1.12,0,0,0-.11,1.57Z"/><path class="cls-1" d="M110.59,30.21a1.11,1.11,0,0,0,1.1-1.12l-.09-12.55a1.11,1.11,0,1,0-2.21,0l.08,12.54A1.12,1.12,0,0,0,110.59,30.21Z"/><path class="cls-1" d="M78.87,46.28l12.5,1a1.11,1.11,0,0,0,.18-2.22L79,44.06a1.11,1.11,0,0,0-.17,2.22Z"/><path class="cls-1" d="M139.16,63.19l-11.11-5.83a1.11,1.11,0,1,0-1,2l11.1,5.84a1.11,1.11,0,0,0,1-2Z"/><path class="cls-1" d="M141.76,42.11,129.3,43.57a1.11,1.11,0,1,0,.25,2.21L142,44.32a1.11,1.11,0,0,0-.26-2.21Z"/><path class="cls-1" d="M115.79,64.54a1.1,1.1,0,0,0-.68,1.41l4.18,11.84a1.1,1.1,0,0,0,1.41.68,1.12,1.12,0,0,0,.68-1.42l-4.17-11.84A1.11,1.11,0,0,0,115.79,64.54Z"/><path class="cls-1" d="M123.43,34.51l7.72-9.89a1.11,1.11,0,1,0-1.75-1.37l-7.72,9.89a1.11,1.11,0,0,0,1.75,1.37Z"/><path class="cls-1" d="M44.93,119.83c-6.68-9-6.23-24.35-6.55-19.42-.84,12.88-5.91,19.42-5.91,19.42a5.64,5.64,0,0,0-.67,2.63c0,3.41,3.09,6.18,6.9,6.18s6.89-2.77,6.89-6.18a5.53,5.53,0,0,0-.67-2.63Z"/><path class="cls-1" d="M66.13,107.69c-5.82-7.81-5.43-21.26-5.71-17-.74,11.24-5.17,17-5.17,17a4.9,4.9,0,0,0-.58,2.3c0,3,2.7,5.4,6,5.4s6-2.42,6-5.4a4.9,4.9,0,0,0-.58-2.3Z"/><path class="cls-1" d="M85.89,92.6c-.43,6.48-3,9.76-3,9.76a2.92,2.92,0,0,0-.34,1.33,3.49,3.49,0,0,0,6.94,0,2.91,2.91,0,0,0-.33-1.33C85.82,97.87,86.05,90.12,85.89,92.6Z"/></svg>