<svg id="Warstwa_4" data-name="Warstwa 4" xmlns="http://www.w3.org/2000/svg" viewBox="0 0 150 150"><defs><style>.cls-1{fill:#fff;}</style></defs><path class="cls-1" d="M124.13,44.45c.05-.53.07-1.06.07-1.59a18.14,18.14,0,0,0-18.12-18.12,17.88,17.88,0,0,0-9.52,2.72A21.6,21.6,0,0,0,54,28.15a17.34,17.34,0,0,0-5.86-1A18.14,18.14,0,0,0,30.06,45.25c0,.21,0,.43,0,.65C25,47.28,17.76,50.21,17.78,60.56c0,7.69,6.4,14.29,15.1,14.7l2.67-4.12-.92,0H34c-6.6,0-12-4.77-12-10.64,0-7,3.81-9.25,10.86-11l1.58-.61,0-1.59-.08-.87a8.27,8.27,0,0,1-.12-1.23,13.92,13.92,0,0,1,13.9-13.91,13.76,13.76,0,0,1,6.75,1.83L58.13,35l-.06-3.66a16.94,16.94,0,0,1,16.42-17l.91,0a17,17,0,0,1,17.21,15.9,12.38,12.38,0,0,1,0,1.45L92.37,37l3.81-3.87A13.9,13.9,0,0,1,120,42.86a13.38,13.38,0,0,1-.29,2.78l-.43,2.12,2.13.37c5.43.95,9.4,5.16,9.65,10.23s-3.25,10.87-8.57,12.55l1.4,3.92a17,17,0,0,0,11.38-16.68A15.26,15.26,0,0,0,124.13,44.45Z"/><path class="cls-1" d="M41.33,87.3h0c-5.38-7.2-5-19.6-5.28-15.63C35.39,82,31.3,87.3,31.3,87.3h0a4.62,4.62,0,0,0-.53,2.12,5.28,5.28,0,0,0,5.55,5,5.28,5.28,0,0,0,5.55-5A4.51,4.51,0,0,0,41.33,87.3Z"/><path class="cls-1" d="M66.55,73.34h0c-4.63-6.21-4.32-16.9-4.55-13.47-.58,8.94-4.1,13.47-4.1,13.47h0a3.85,3.85,0,0,0-.46,1.83,4.81,4.81,0,0,0,9.56,0A4.09,4.09,0,0,0,66.55,73.34Z"/><path class="cls-1" d="M92.73,91.21h0c-3.48-4.64-3.24-12.66-3.41-10.09-.43,6.7-3.07,10.09-3.07,10.09h0a3,3,0,0,0-.35,1.38,3.61,3.61,0,0,0,7.17,0A2.86,2.86,0,0,0,92.73,91.21Z"/><path class="cls-1" d="M105.65,70h0c-4-5.38-3.75-14.66-3.94-11.69C101.21,66,98.16,70,98.16,70h0a3.44,3.44,0,0,0-.4,1.59,4.17,4.17,0,0,0,8.29,0A3.32,3.32,0,0,0,105.65,70Z"/><polygon class="cls-1" points="59.42 144.06 60.09 143.02 83.75 106.53 60.76 106.5 80.33 75.26 82.22 75.26 68.98 102.45 93.64 102.57 59.42 144.06"/></svg>