<svg id="Warstwa_4" data-name="Warstwa 4" xmlns="http://www.w3.org/2000/svg" viewBox="0 0 150 150"><defs><style>.cls-1{fill:#fff;}</style></defs><path class="cls-1" d="M126.18,53.45c0-.58.08-1.15.08-1.72a19.51,19.51,0,0,0-19.49-19.48,19.22,19.22,0,0,0-10.25,2.92,23.23,23.23,0,0,0-45.72.74,18.71,18.71,0,0,0-6.31-1.1A19.51,19.51,0,0,0,25,54.3c0,.23,0,.46,0,.71-5.44,1.48-13.26,4.63-13.24,15.76C11.8,79,18.67,86.14,28,86.58l2.87-4.42c-.34,0-.73,0-1,0l-.7,0c-7.1,0-12.88-5.14-12.89-11.44,0-7.52,4.1-10,11.67-11.84l1.71-.65,0-1.72-.08-.92a10.11,10.11,0,0,1-.12-1.34,15,15,0,0,1,15-14.95,14.77,14.77,0,0,1,7.26,2l3.44,1.93-.07-3.94A18.24,18.24,0,0,1,72.79,21l1,0A18.27,18.27,0,0,1,92.28,38c0,.34,0,.69,0,1.56L92,45.42l4.09-4.16a14.8,14.8,0,0,1,10.65-4.47,15,15,0,0,1,15,14.94,15.47,15.47,0,0,1-.31,3L121,57l2.29.41c5.84,1,10.1,5.54,10.37,11s-3.49,11.7-9.23,13.51l1.52,4.21a18.33,18.33,0,0,0,12.24-17.94A16.38,16.38,0,0,0,126.18,53.45Z"/><path class="cls-1" d="M37.43,95.65h1.31V94.36H37.43Zm5.12,1.75.92.92.94-.92-.94-.93Zm-7-8.73-.92.94.93.91.92-.91Zm12.63,7h1.32V94.36H48.22Zm-9.55-12.2H37.36v1.3h1.31Zm11,0H48.32v1.3h1.31Zm-5.26-1.79-.93-.93-.93.93.93.92Zm6.47,9.9-.83-2,.83-1.9-1.53,1.6H46.8l.91-1.4-1.61-.31,1.77-1.8h2.18l-2-.72-.76-2v2.22l-1.74,1.81-.26-1.72-1.45,1V83.87l1.59-1.65-1.89.94-2-.86,1.58,1.57v2.44l-1.47-.88-.24,1.62-1.77-1.81V83L39,85l-2.06.79h2.21l1.77,1.73-1.82.4,1.12,1.31h-2.5l-1.58-1.6.76,2-.76,2,1.58-1.65h2.5l-1.12,1.46,1.82.29-1.77,1.76H36.93l2.06.72.66,2,0-2.18,1.7-1.7L41.69,94l1.47-1.09V95.4l-1.58,1.54,1.93-.85,1.88.85L43.85,95.4V92.89l1.45,1,.26-1.72,1.77,1.77,0,2.18L48,94.18l2-.76H47.87l-1.77-1.7,1.71-.5-1-1.31h2.51Zm-9.26-3.31,1.08,1H41.22ZM41.66,91l-.44-1.09h1.44Zm1.5.89-1-.4,1-1.07Zm0-3.15-1-1,1-.43Zm2.23-.49.38,1H44.33Zm-1.5-.94,1,.43-1,1Zm0,4.61v-1.5l1,1ZM45.33,91l-1-1.09h1.53Zm5.93-2.35-.93.91.93.93.93-.93Z"/><path class="cls-1" d="M90.1,88.68h1.7V87H90.1ZM96.74,91l1.2,1.18L99.15,91l-1.21-1.22Zm-9-11.32-1.19,1.21L87.73,82l1.18-1.18Zm16.39,9.05h1.7V87h-1.7ZM91.7,72.85H90v1.7H91.7Zm14.23,0h-1.7v1.7h1.7ZM99.1,70.52l-1.21-1.19-1.2,1.19,1.2,1.21Zm8.4,12.85-1.09-2.61,1.09-2.46-2,2.08h-3.25l1.18-1.83-2.09-.39,2.3-2.33h2.83l-2.59-.94-1-2.59v2.87l-2.25,2.34-.34-2.22-1.87,1.27V73.4l2-2.14L98,72.48l-2.55-1.12,2,2v3.16l-1.9-1.15-.31,2.1L93,75.17V72.3l-.9,2.59-2.66,1h2.86l2.3,2.24-2.36.52,1.45,1.7H90.46l-2-2.08,1,2.54-1,2.53,2-2.14h3.25l-1.45,1.89,2.36.37-2.3,2.29H89.46l2.66.93L93,89.26l0-2.82,2.21-2.21.4,2.29,1.9-1.42v3.25l-2,2L98,89.25l2.45,1.1-2-2V85.1l1.87,1.28.34-2.22,2.29,2.28,0,2.82.83-2.49,2.65-1h-2.83l-2.3-2.2,2.22-.65-1.31-1.7h3.25Zm-12-4.29,1.39,1.3H95Zm.09,3.55L95,81.23h1.87Zm2,1.17-1.26-.52,1.26-1.39Zm0-4.08-1.26-1.3,1.26-.56Zm2.9-.64.48,1.3H99Zm-1.94-1.22,1.33.56-1.33,1.3Zm0,6v-2l1.33,1.3Zm1.86-1.21L99,81.23h2Zm7.68-3-1.2,1.19L108,82l1.21-1.2Z"/><path class="cls-1" d="M49.29,132.55H51v-1.68H49.29Zm6.64,2.26,1.2,1.19,1.21-1.19-1.21-1.21Zm-9-11.32-1.2,1.21,1.21,1.19,1.2-1.19Zm16.39,9.06H65v-1.68h-1.7Zm-12.4-15.84H49.2v1.7h1.69Zm14.23,0h-1.7v1.7h1.7Zm-6.83-2.32-1.21-1.19-1.2,1.19,1.2,1.2Zm8.4,12.84-1.09-2.61,1.09-2.45-2,2.07H61.44l1.18-1.82L60.53,122l2.3-2.34h2.82l-2.59-.94-1-2.59V119l-2.25,2.35-.34-2.23-1.88,1.28v-3.17l2.05-2.13-2.44,1.22-2.55-1.12,2,2v3.17l-1.9-1.16-.31,2.11L52.21,119v-2.87l-.9,2.59-2.66,1h2.87L53.81,122l-2.36.51,1.45,1.7H49.65l-2-2.07,1,2.53-1,2.53,2-2.13H52.9L51.45,127l2.36.37-2.29,2.29H48.65l2.66.92.86,2.56,0-2.83,2.21-2.2.4,2.28,1.9-1.41v3.25l-2,2,2.49-1.09,2.45,1.09-2-2V129l1.88,1.27.34-2.22,2.29,2.28,0,2.83.83-2.5,2.64-1H62.83l-2.3-2.2,2.22-.65-1.31-1.7h3.25Zm-12-4.29,1.39,1.3H54.2Zm.09,3.56-.57-1.4h1.87Zm1.95,1.17-1.26-.52,1.26-1.39Zm0-4.09-1.26-1.3,1.26-.55Zm2.9-.64.48,1.3H58.23Zm-1.95-1.21,1.34.55-1.34,1.3Zm0,6v-1.95l1.34,1.3Zm1.86-1.21-1.3-1.4h2Zm7.69-3L66,124.65l1.2,1.2,1.21-1.2Z"/><path class="cls-1" d="M76.12,110.81H77.3v-1.17H76.12Zm4.61,1.55.84.84.83-.84-.83-.83Zm-6.27-7.85-.83.85.83.81.83-.81Zm11.39,6.3H87v-1.17H85.85Zm-8.61-11H76.06V101h1.18Zm9.88,0H85.93V101h1.19Zm-4.75-1.62-.84-.83-.83.83.83.83Zm5.83,8.92-.75-1.81.75-1.71L86.82,105H84.56l.82-1.26-1.45-.28,1.6-1.62h2l-1.8-.65L85,99.43v2L83.45,103l-.24-1.54-1.3.88v-2.2l1.42-1.48-1.69.85-1.78-.78,1.42,1.41v2.2l-1.32-.8L79.74,103l-1.59-1.62v-2l-.62,1.79-1.86.71h2l1.59,1.56-1.64.36,1,1.18H76.37L75,103.59l.68,1.77L75,107.11l1.42-1.48h2.25l-1,1.31,1.64.26-1.59,1.59h-2l1.86.64.59,1.78,0-2,1.53-1.53L80,109.3l1.32-1v2.26L79.86,112l1.73-.76,1.7.76-1.38-1.39v-2.26l1.3.89.24-1.54L85,109.24l0,2,.58-1.74,1.84-.68h-2l-1.6-1.53,1.54-.45-.91-1.18h2.26Zm-8.34-3,1,.9h-1.3Zm.07,2.47-.4-1h1.3Zm1.35.81-.88-.36.88-1Zm0-2.84-.88-.9.88-.39Zm2-.44.34.9h-1.3Zm-1.35-.85.93.39-.93.9Zm0,4.16v-1.36l.93.91Zm1.3-.84-.91-1h1.39Zm5.34-2.11-.84.82.84.84.84-.84Z"/><path class="cls-1" d="M64.47,87.84h.83V87h-.83Zm3.25,1.1.58.59.59-.59-.59-.59ZM63.3,83.41l-.58.59.59.58.58-.58Zm8,4.43h.83V87h-.83ZM65.25,80.1h-.82v.83h.82Zm7,0h-.83v.83h.83ZM68.87,79l-.59-.58-.59.58.59.59ZM73,85.24,72.45,84l.53-1.2-1,1H70.42l.57-.89-1-.2,1.12-1.14h1.39l-1.27-.46-.48-1.26v1.4l-1.1,1.15-.17-1.09-.91.62V80.37l1-1.05-1.2.6-1.25-.55,1,1v1.54l-.94-.56-.15,1L65.9,81.23v-1.4l-.44,1.26-1.3.51h1.4l1.12,1.09L65.53,83l.71.83H64.65l-1-1L64.13,84l-.48,1.24,1-1h1.59l-.71.93,1.15.18-1.12,1.12h-1.4l1.3.45.42,1.25,0-1.38L67,85.66l.19,1.12.94-.69v1.59l-1,1,1.22-.53,1.2.53-1-1V86.09l.91.62.17-1.09,1.12,1.12,0,1.38.4-1.22,1.3-.48H71.09L70,85.35,71.06,85l-.64-.83H72Zm-5.88-2.1.69.64h-.92Zm.05,1.74-.28-.69h.92Zm1,.57-.62-.25.62-.68Zm0-2-.62-.63.62-.27Zm1.41-.31.24.64h-.92Zm-1-.59.65.27-.65.63Zm0,2.92v-1l.65.63Zm.91-.59-.64-.69h1Zm3.76-1.48-.59.57.59.59.59-.59Z"/><path class="cls-1" d="M99.88,112.39h1v-.94h-1Zm3.71,1.26.67.66.67-.66-.67-.67Zm-5-6.32-.67.68.67.66.67-.66Zm9.14,5.06h1v-.94h-1Zm-6.91-8.84h-1v.94h1Zm7.93,0h-.94v.94h.94Zm-3.81-1.3-.67-.66-.67.66.67.67Zm4.69,7.17L109,108l.61-1.38-1.11,1.16h-1.82l.66-1-1.17-.22,1.28-1.31H109l-1.44-.52-.55-1.44v1.59l-1.25,1.32-.19-1.25-1,.71v-1.76l1.14-1.2-1.36.69-1.42-.63,1.14,1.14v1.76L103,105l-.18,1.18-1.29-1.32v-1.59l-.49,1.44-1.49.57h1.6l1.28,1.26-1.31.29.8.94h-1.81l-1.14-1.16.55,1.42-.55,1.41,1.14-1.19h1.81l-.8,1,1.31.21-1.28,1.27h-1.6l1.49.52.48,1.43v-1.57l1.24-1.24.23,1.28,1.06-.79v1.81l-1.14,1.12,1.39-.62,1.36.62-1.11-1.12v-1.81l1,.71.19-1.25,1.28,1.29,0,1.57.47-1.39,1.47-.56h-1.58l-1.28-1.23,1.24-.35-.73-1h1.82Zm-6.7-2.4.77.73h-1Zm0,2-.32-.78h1Zm1.09.65-.71-.29.71-.77Zm0-2.28-.71-.72.71-.31Zm1.61-.36.28.73h-1Zm-1.08-.67.75.31-.75.72Zm0,3.34V108.6l.75.72Zm1-.68-.73-.78H106Zm4.29-1.7-.68.66.68.68.67-.68Z"/></svg>