<svg id="Warstwa_4" data-name="Warstwa 4" xmlns="http://www.w3.org/2000/svg" viewBox="0 0 150 150"><defs><style>.cls-1{fill:#fff;}</style></defs><path class="cls-1" d="M138.43,66.1c-4.31,0-6.57-2.43-8.38-4.39s-3.05-3.3-5.88-3.3-4.17,1.46-5.87,3.31-4.07,4.38-8.39,4.38-6.56-2.43-8.37-4.39-3.06-3.3-5.87-3.3-4.16,1.46-5.86,3.3-4.07,4.39-8.37,4.39-6.56-2.43-8.38-4.39-3-3.3-5.86-3.3-4.16,1.46-5.85,3.3S57.28,66.1,53,66.1s-6.55-2.44-8.36-4.39-3-3.3-5.84-3.3-4.16,1.46-5.87,3.31-4.06,4.38-8.36,4.38S18,63.67,16.2,61.71s-3-3.3-5.86-3.3V55c4.3,0,6.55,2.43,8.36,4.4s3.05,3.29,5.86,3.29,4.15-1.46,5.86-3.29S34.48,55,38.79,55s6.54,2.43,8.34,4.39,3,3.3,5.86,3.3,4.15-1.46,5.85-3.29S62.9,55,67.2,55s6.56,2.43,8.37,4.4,3.05,3.29,5.87,3.29,4.15-1.46,5.86-3.29S91.37,55,95.67,55s6.56,2.43,8.38,4.4,3,3.29,5.86,3.29,4.17-1.46,5.88-3.3S119.86,55,124.17,55s6.57,2.43,8.38,4.39,3.06,3.3,5.88,3.3Z"/><path class="cls-1" d="M138.43,81.55c-4.31,0-6.57-2.44-8.38-4.4s-3.05-3.3-5.88-3.3-4.17,1.46-5.87,3.3-4.07,4.4-8.39,4.4-6.56-2.44-8.37-4.4-3.06-3.3-5.87-3.3-4.16,1.46-5.86,3.3-4.07,4.4-8.37,4.4-6.56-2.44-8.38-4.4-3-3.3-5.86-3.3-4.16,1.46-5.85,3.3-4.07,4.4-8.36,4.4-6.55-2.44-8.36-4.4-3-3.3-5.84-3.3-4.16,1.47-5.87,3.3-4.06,4.4-8.36,4.4S18,79.11,16.2,77.15s-3-3.3-5.86-3.3V70.44c4.3,0,6.55,2.44,8.36,4.39s3.05,3.31,5.86,3.31,4.15-1.46,5.86-3.3,4.06-4.4,8.37-4.4,6.54,2.43,8.34,4.39,3,3.31,5.86,3.31,4.15-1.46,5.85-3.31,4.06-4.39,8.36-4.39,6.56,2.43,8.37,4.39,3.05,3.31,5.87,3.31,4.15-1.46,5.86-3.31,4.07-4.39,8.37-4.39,6.56,2.43,8.38,4.39,3,3.31,5.86,3.31,4.17-1.46,5.88-3.31,4.07-4.39,8.38-4.39,6.57,2.43,8.38,4.39,3.06,3.31,5.88,3.31Z"/><path class="cls-1" d="M138.43,98.4c-4.31,0-6.57-2.43-8.38-4.39s-3.05-3.3-5.88-3.3S120,92.17,118.3,94s-4.07,4.39-8.39,4.39S103.35,96,101.54,94s-3.06-3.3-5.87-3.3-4.16,1.46-5.86,3.3-4.07,4.39-8.37,4.39S74.88,96,73.06,94s-3-3.3-5.86-3.3S63,92.17,61.35,94,57.28,98.4,53,98.4,46.44,96,44.63,94s-3-3.3-5.84-3.3-4.16,1.46-5.87,3.3-4.06,4.39-8.36,4.39S18,96,16.2,94s-3-3.3-5.86-3.3V87.3c4.3,0,6.55,2.43,8.36,4.39S21.75,95,24.56,95s4.15-1.45,5.86-3.3,4.06-4.39,8.37-4.39,6.54,2.43,8.34,4.38S50.18,95,53,95s4.15-1.45,5.85-3.3S62.9,87.3,67.2,87.3s6.56,2.43,8.37,4.39S78.62,95,81.44,95s4.15-1.45,5.86-3.3,4.07-4.39,8.37-4.39,6.56,2.43,8.38,4.39,3,3.3,5.86,3.3,4.17-1.45,5.88-3.31,4.07-4.38,8.38-4.38,6.57,2.43,8.38,4.38S135.61,95,138.43,95Z"/></svg>