<?xml version="1.0" encoding="utf-8"?>
<!-- Generator: Adobe Illustrator 24.1.0, SVG Export Plug-In . SVG Version: 6.00 Build 0)  -->
<svg version="1.1" id="Warstwa_1" xmlns="http://www.w3.org/2000/svg" xmlns:xlink="http://www.w3.org/1999/xlink" x="0px" y="0px"
	 viewBox="0 0 150 150" style="enable-background:new 0 0 150 150;" xml:space="preserve">
<style type="text/css">
	.st0{display:none;}
	.st1{display:inline;fill:none;stroke:#FFFFFF;stroke-width:2;stroke-linecap:round;stroke-miterlimit:10;}
	.st2{fill:#FFFFFF;}
</style>
<g id="Warstwa_1_1_" class="st0">
	<path class="st1" d="M127.5,51c7.67,0,13.78,6.64,12.92,14.48C139.69,72.11,133.83,77,127.16,77H11"/>
	<path class="st1" d="M97,55c0-12,12-12,12-12c7.18,0,13,5.82,13,13s-5.82,13-13,13H11"/>
	<path class="st1" d="M97,98c0,12,12,12,12,12c7.18,0,13-5.82,13-13s-5.82-13-13-13H11"/>
</g>
<g id="Warstwa_2_1_">
</g>
<g id="Warstwa_3">
</g>
<g id="Warstwa_4">
	<path class="st2" d="M78.3,102.81c0,0,11.06,0.18,19.09,0.18c3.03,0,5.62-0.03,7.06-0.1c7.54-0.38,13.8-7.57,13.53-15.45l0,0
		c6.26-0.02,11.33,0.7,15.42-4.37c5.36-6.31,3.18-16.02-4.89-18.66c0.74-10.3-10.7-17.58-19.66-12.49
		c-1.52-6.96-7.81-12.11-15.3-12.11l-0.82,0.02c-6.6,0.33-11.98,4.6-14,10.38C68.01,38.86,48,44.85,45.83,60.41
		c-10.36-3.77-21.84,4.84-21.25,15.87c-4.51,1.24-10.91,3.89-10.91,13.13c0,7.35,6.49,13.33,14.46,13.33l0.77-0.02
		c4.95-0.26,25.5,0.02,25.5,0.02 M114.61,87.72c0.26,5.17-3.9,11.19-9.84,11.48c-5.24,0.26-26.04-0.09-26.09-0.09
		c-9.23-0.02-23.21-0.06-23.96-0.08l-0.07-0.01c-0.28-0.01-21.24-0.26-25.92-0.01l-0.57,0.01c-5.83,0-10.58-4.2-10.58-9.36
		c-0.01-6.15,3.37-8.15,9.59-9.69l1.49-0.61l0.05-1.5c-1.25-7.24,4.65-14.16,12.12-14.09c3.08-0.17,6.33,1.76,8.98,3.3l-0.06-3.45
		C49.62,55.58,56,48.96,64.29,48.55l0.81-0.02c7.96-0.05,14.88,6.15,15.23,14.05c0.01,0.72-0.21,5.51-0.23,6.38l3.6-3.65
		c7.56-7.81,21.1-2.27,21.04,8.58c0.05,1.4-0.39,3.08-0.65,4.44l2.01,0.35c4.7,0.85,8.18,4.4,8.5,8.98
		C114.61,87.71,114.61,87.71,114.61,87.72z M130.87,80.82c-3.73,4.2-7.2,2.62-13.24,2.94c-1.45-3.99-4.79-7.15-9.14-8.49
		c1.25-13-13.57-22.13-24.63-15.23c-0.35-1.82-0.9-3.56-1.83-5.14c0.31-5.83,5.04-10.53,11.15-10.83l0.62-0.02
		c6.29,0,11.46,4.75,11.76,10.81c0.01,0.55-0.22,5.44-0.24,6.12l3.6-3.65c5.79-5.98,16.15-1.73,16.11,6.58
		c0.05,1.16-0.39,2.74-0.59,3.87l2.01,0.35C132.82,69.21,134.85,76.19,130.87,80.82z"/>
</g>
</svg>
