<svg id="Warstwa_1" data-name="Warstwa 1" xmlns="http://www.w3.org/2000/svg" viewBox="0 0 325.23 65"><defs><style>.cls-1,.cls-2,.cls-9{fill:#266085;}.cls-2{font-size:37.67px;font-family:AvenirNextCyr-Medium, Avenir Next Cyr;font-weight:500;}.cls-3{letter-spacing:-0.04em;}.cls-4{letter-spacing:-0.01em;}.cls-5{letter-spacing:-0.01em;}.cls-6{font-family:AvenirNextCyr-Regular, Avenir Next Cyr;font-weight:400;}.cls-7,.cls-8,.cls-9{font-family:AvenirNextCyr-UltraLight, Avenir Next Cyr;font-weight:100;}.cls-7{letter-spacing:-0.1em;}.cls-8{letter-spacing:0em;}.cls-9{font-size:24.69px;}.cls-10{fill:#fdc801;}</style></defs><rect class="cls-1" width="65" height="65" rx="13.27"/><text class="cls-2" transform="translate(79.03 45.75)"><tspan class="cls-3">W</tspan><tspan class="cls-4" x="35.86" y="0">e</tspan><tspan class="cls-5" x="57.21" y="0">a</tspan><tspan x="77.25" y="0">ther</tspan><tspan class="cls-6" x="146.86" y="0"> </tspan><tspan class="cls-7" x="156.27" y="0">T</tspan><tspan class="cls-8" x="173" y="0">ool</tspan></text><text class="cls-9" transform="translate(310.42 28.87)">®</text><path class="cls-10" d="M231.35,130a11.76,11.76,0,1,1,11.76-11.76A11.77,11.77,0,0,1,231.35,130Zm0-21.47a9.71,9.71,0,1,0,9.71,9.71A9.72,9.72,0,0,0,231.35,108.5Z" transform="translate(-198.77 -84.87)"/><path class="cls-10" d="M222.2,108a.82.82,0,0,1-.07,1.15h0A.82.82,0,0,1,221,109l-6.08-6.94A.82.82,0,0,1,215,101h0a.81.81,0,0,1,1.15.07Z" transform="translate(-198.77 -84.87)"/><path class="cls-10" d="M232.2,104.21a.81.81,0,0,1-.81.82h0a.82.82,0,0,1-.82-.81L230.51,95a.81.81,0,0,1,.8-.82h0a.82.82,0,0,1,.83.81Z" transform="translate(-198.77 -84.87)"/><path class="cls-10" d="M217.4,116a.8.8,0,0,1,.74.88h0a.81.81,0,0,1-.88.75l-9.2-.75a.82.82,0,0,1-.74-.88h0a.81.81,0,0,1,.88-.75Z" transform="translate(-198.77 -84.87)"/><path class="cls-10" d="M218.88,124.71A.81.81,0,0,1,220,125h0a.81.81,0,0,1-.25,1.13L212,131a.82.82,0,0,1-1.13-.25h0a.82.82,0,0,1,.26-1.13Z" transform="translate(-198.77 -84.87)"/><path class="cls-10" d="M225.85,130.79a.82.82,0,0,1,1.05-.48h0a.83.83,0,0,1,.48,1.06L224.13,140a.82.82,0,0,1-1,.48h0a.81.81,0,0,1-.48-1Z" transform="translate(-198.77 -84.87)"/><path class="cls-10" d="M243.47,126.44a.81.81,0,0,1-.34-1.1h0a.82.82,0,0,1,1.1-.35l8.17,4.3a.81.81,0,0,1,.34,1.1h0a.81.81,0,0,1-1.1.34Z" transform="translate(-198.77 -84.87)"/><path class="cls-10" d="M245.34,116.48a.81.81,0,0,1-.9-.71h0a.81.81,0,0,1,.71-.91l9.17-1.07a.8.8,0,0,1,.9.71h0a.81.81,0,0,1-.71.91Z" transform="translate(-198.77 -84.87)"/><path class="cls-10" d="M239.33,139.48a.81.81,0,0,1-.5,1h0a.81.81,0,0,1-1-.5l-3.07-8.7a.81.81,0,0,1,.5-1h0a.81.81,0,0,1,1,.49Z" transform="translate(-198.77 -84.87)"/><path class="cls-10" d="M240.84,108.19a.83.83,0,0,1-1.15.15h0a.81.81,0,0,1-.14-1.15l5.68-7.27a.82.82,0,0,1,1.15-.15h0a.83.83,0,0,1,.14,1.15Z" transform="translate(-198.77 -84.87)"/></svg>