<svg id="Warstwa_1" data-name="Warstwa 1" xmlns="http://www.w3.org/2000/svg" viewBox="0 0 60.96 11"><defs><style>.cls-1,.cls-2,.cls-9{fill:#266085;}.cls-2{font-size:7.26px;font-family:AvenirNextCyr-Medium, Avenir Next Cyr;font-weight:500;}.cls-3{letter-spacing:-0.04em;}.cls-4{letter-spacing:-0.01em;}.cls-5{letter-spacing:-0.01em;}.cls-6{font-family:AvenirNextCyr-Regular, Avenir Next Cyr;font-weight:400;}.cls-7,.cls-8,.cls-9{font-family:AvenirNextCyr-UltraLight, Avenir Next Cyr;font-weight:100;}.cls-7{letter-spacing:-0.1em;}.cls-9{font-size:4.76px;}.cls-10{fill:#fdc801;}</style></defs><rect class="cls-1" width="11" height="11" rx="2.37"/><text class="cls-2" transform="translate(13.51 8.06)"><tspan class="cls-3">W</tspan><tspan class="cls-4" x="6.91" y="0">e</tspan><tspan class="cls-5" x="11.03" y="0">a</tspan><tspan x="14.89" y="0">ther</tspan><tspan class="cls-6" x="28.31" y="0"> </tspan><tspan class="cls-7" x="30.12" y="0">T</tspan><tspan class="cls-8" x="33.35" y="0">ool</tspan></text><text class="cls-9" transform="translate(58.11 4.8)">®</text><path class="cls-10" d="M46.55,58.93a2.27,2.27,0,1,1,2.27-2.27A2.27,2.27,0,0,1,46.55,58.93Zm0-4.14a1.87,1.87,0,1,0,1.87,1.87A1.87,1.87,0,0,0,46.55,54.79Z" transform="translate(-41.04 -51)"/><path class="cls-10" d="M44.79,54.69a.15.15,0,0,1,0,.22h0a.16.16,0,0,1-.22,0l-1.17-1.34a.15.15,0,0,1,0-.22h0a.15.15,0,0,1,.22,0Z" transform="translate(-41.04 -51)"/><path class="cls-10" d="M46.72,54a.16.16,0,0,1-.16.15h0A.16.16,0,0,1,46.4,54V52.19a.16.16,0,0,1,.16-.16h0a.16.16,0,0,1,.15.16Z" transform="translate(-41.04 -51)"/><path class="cls-10" d="M43.86,56.23a.16.16,0,0,1,.15.17h0a.17.17,0,0,1-.17.15l-1.78-.15a.16.16,0,0,1-.14-.17h0a.15.15,0,0,1,.17-.14Z" transform="translate(-41.04 -51)"/><path class="cls-10" d="M44.15,57.92a.15.15,0,0,1,.22,0h0a.16.16,0,0,1,0,.21l-1.51,1a.14.14,0,0,1-.21-.05h0a.14.14,0,0,1,0-.21Z" transform="translate(-41.04 -51)"/><path class="cls-10" d="M45.49,59.09a.16.16,0,0,1,.2-.09h0a.15.15,0,0,1,.1.2l-.63,1.66a.15.15,0,0,1-.2.1h0a.15.15,0,0,1-.09-.21Z" transform="translate(-41.04 -51)"/><path class="cls-10" d="M48.89,58.25a.16.16,0,0,1-.07-.21h0A.16.16,0,0,1,49,58l1.57.83a.16.16,0,0,1,.07.21h0a.16.16,0,0,1-.22.07Z" transform="translate(-41.04 -51)"/><path class="cls-10" d="M49.25,56.33a.15.15,0,0,1-.17-.14h0a.15.15,0,0,1,.13-.17L51,55.81a.15.15,0,0,1,.17.14h0a.15.15,0,0,1-.13.17Z" transform="translate(-41.04 -51)"/><path class="cls-10" d="M48.09,60.76a.15.15,0,0,1-.1.2h0a.16.16,0,0,1-.2-.09l-.59-1.68a.16.16,0,0,1,.1-.2h0a.15.15,0,0,1,.2.1Z" transform="translate(-41.04 -51)"/><path class="cls-10" d="M48.38,54.73a.16.16,0,0,1-.22,0h0a.16.16,0,0,1,0-.22l1.1-1.4a.16.16,0,0,1,.22,0h0a.16.16,0,0,1,0,.22Z" transform="translate(-41.04 -51)"/></svg>