<?xml version="1.0" encoding="utf-8"?>
<!-- Generator: Adobe Illustrator 24.1.0, SVG Export Plug-In . SVG Version: 6.00 Build 0)  -->
<svg version="1.1" id="Warstwa_1" xmlns="http://www.w3.org/2000/svg" xmlns:xlink="http://www.w3.org/1999/xlink" x="0px" y="0px"
	 viewBox="0 0 150 150" style="enable-background:new 0 0 150 150;" xml:space="preserve">
<style type="text/css">
	.st0{display:none;}
	.st1{display:inline;fill:none;stroke:#FFFFFF;stroke-width:2;stroke-linecap:round;stroke-miterlimit:10;}
	.st2{fill:none;stroke:#FFFFFF;stroke-width:4;stroke-miterlimit:10;}
</style>
<g id="Warstwa_1_1_" class="st0">
	<path class="st1" d="M127.5,51c7.67,0,13.78,6.64,12.92,14.48C139.69,72.11,133.83,77,127.16,77H11"/>
	<path class="st1" d="M97,55c0-12,12-12,12-12c7.18,0,13,5.82,13,13s-5.82,13-13,13H11"/>
	<path class="st1" d="M97,98c0,12,12,12,12,12c7.18,0,13-5.82,13-13s-5.82-13-13-13H11"/>
</g>
<g id="Warstwa_2_1_" class="st0">
</g>
<g id="Warstwa_3">
</g>
<g id="Warstwa_4">
	<path class="st2" d="M37.32,83.62l20.59-43.51l21.63,41.7l0.8,1.69c0,0,1.26,4.6,1.26,5.57c0,11.01-10.14,19.94-22.65,19.94
		S36.3,100.08,36.3,89.07c0-0.46,0.06-2.29,0.06-2.29L37.32,83.62z"/>
	<path class="st2" d="M88.19,59.51L100.26,34l12.68,24.45l0.47,0.99c0,0,0.74,2.69,0.74,3.26c0,6.46-5.95,11.69-13.28,11.69
		S87.59,69.16,87.59,62.7c0-0.27,0.03-1.34,0.03-1.34L88.19,59.51z"/>
	<path class="st2" d="M99.06,98.97l7.07-14.93l7.42,14.31l0.27,0.58c0,0,0.43,1.58,0.43,1.91c0,3.78-3.48,6.84-7.77,6.84
		s-7.77-3.06-7.77-6.84c0-0.16,0.02-0.79,0.02-0.79L99.06,98.97z"/>
</g>
</svg>
